<svg width="34" height="34" viewBox="0 0 34 34" fill="none" xmlns="http://www.w3.org/2000/svg">
<rect x="0.341797" y="0.429688" width="33.4794" height="33.3806" rx="3.343" fill="url(#paint0_linear_53_18231)"/>
<path d="M6.3418 27.3484C6.3418 27.0918 6.44423 26.8458 6.62657 26.6644L26.682 6.71298C26.8644 6.53159 27.1117 6.42969 27.3696 6.42969C27.9065 6.42969 28.3418 6.86273 28.3418 7.39691V27.4036C28.3418 27.9073 27.9314 28.3156 27.4251 28.3156C26.9189 28.3156 26.5085 27.9073 26.5085 27.4036V9.89657C26.5085 9.79502 26.385 9.74415 26.3129 9.81597L8.00157 28.0323C7.81923 28.2137 7.57193 28.3156 7.31407 28.3156C6.7771 28.3156 6.3418 27.8826 6.3418 27.3484Z" fill="#F5EFF7"/>
<path d="M11.9311 28.3155C11.1371 28.3155 10.7395 27.3605 11.3009 26.802L24.9381 13.2358C25.0102 13.164 25.1336 13.2148 25.1336 13.3164V27.4039C25.1336 27.9075 24.7232 28.3158 24.2169 28.3158C23.7107 28.3158 23.3003 27.9075 23.3003 27.4039V17.6479C23.3003 17.5464 23.1768 17.4955 23.1047 17.5673L12.5613 28.0559C12.3942 28.2222 12.1675 28.3155 11.9311 28.3155Z" fill="#F5EFF7"/>
<path d="M16.5142 28.3164C15.7202 28.3165 15.3225 27.3615 15.8839 26.803L21.7293 20.9877C21.8014 20.9159 21.9249 20.9668 21.9249 21.0684V27.4048C21.9249 27.9084 21.5145 28.3167 21.0082 28.3167C20.502 28.3167 20.0916 27.9084 20.0916 27.4048V25.3999C20.0916 25.2983 19.9681 25.2475 19.8959 25.3193L17.1442 28.0567C16.9771 28.223 16.7505 28.3164 16.5142 28.3164Z" fill="#F5EFF7"/>
<defs>
<linearGradient id="paint0_linear_53_18231" x1="17.0815" y1="-7.91542" x2="17.0815" y2="33.8103" gradientUnits="userSpaceOnUse">
<stop stop-color="#9891DE"/>
<stop offset="0.463659" stop-color="#6750A4"/>
</linearGradient>
</defs>
</svg>
