<svg width="30" height="34" viewBox="0 0 30 34" fill="none" xmlns="http://www.w3.org/2000/svg">
<path d="M25.8793 6.84742C25.8552 6.67899 25.7109 6.58275 25.5907 6.58275C25.4704 6.58275 23.0894 6.53463 23.0894 6.53463C23.0894 6.53463 21.0932 4.60979 20.9008 4.39325C20.7084 4.20076 20.3236 4.24888 20.1793 4.297C20.1793 4.297 19.7945 4.41731 19.1691 4.60979C19.0729 4.27294 18.9046 3.86392 18.6881 3.43083C17.9907 2.08344 16.9324 1.36162 15.6818 1.36162C15.5856 1.36162 15.5134 1.36162 15.4172 1.38568C15.3691 1.33756 15.3451 1.28944 15.297 1.26538C14.7438 0.68793 14.0463 0.399204 13.2046 0.423264C11.5932 0.471385 9.98177 1.65035 8.65898 3.71955C7.74506 5.18724 7.04758 7.01584 6.83113 8.43541C4.97922 9.01286 3.68049 9.42189 3.63238 9.42189C2.69441 9.71062 2.67036 9.73468 2.5501 10.6249C2.502 11.2986 0.0488281 30.2823 0.0488281 30.2823L20.6362 33.8433L29.559 31.6297C29.535 31.6297 25.9033 7.01584 25.8793 6.84742ZM18.135 4.94664C17.6539 5.091 17.1248 5.25942 16.5476 5.45191C16.5476 4.63385 16.4274 3.47895 16.0666 2.51653C17.2932 2.70901 17.8945 4.10452 18.135 4.94664ZM15.4653 5.7647C14.3831 6.10154 13.2046 6.46245 12.0261 6.82336C12.3628 5.54815 12.9881 4.297 13.7577 3.45489C14.0463 3.1421 14.4552 2.80525 14.9122 2.61277C15.3932 3.55113 15.4894 4.87446 15.4653 5.7647ZM13.2527 1.50599C13.6375 1.50599 13.9501 1.57817 14.2147 1.77065C13.7818 1.9872 13.3489 2.32404 12.9641 2.75713C11.9299 3.86392 11.1362 5.57221 10.8235 7.23239C9.83747 7.54517 8.87544 7.8339 8.00961 8.09856C8.58683 5.47597 10.7754 1.57817 13.2527 1.50599Z" fill="#95BF47"/>
<path d="M25.5912 6.58325C25.4709 6.58325 23.0899 6.53512 23.0899 6.53512C23.0899 6.53512 21.0937 4.61028 20.9013 4.39374C20.8291 4.32156 20.7329 4.27344 20.6367 4.27344V33.8438L29.5595 31.6302C29.5595 31.6302 25.9279 7.01633 25.9038 6.84791C25.8557 6.67949 25.7114 6.58325 25.5912 6.58325Z" fill="#5E8E3E"/>
<path d="M15.6826 11.1793L14.6484 15.053C14.6484 15.053 13.494 14.5237 12.1231 14.6199C10.1028 14.7402 10.1028 16.0154 10.1028 16.3282C10.2231 18.0606 14.7687 18.4456 15.0332 22.5118C15.2256 25.7118 13.3497 27.9013 10.6079 28.0698C7.33701 28.2382 5.5332 26.3133 5.5332 26.3133L6.23067 23.3539C6.23067 23.3539 8.05853 24.7253 9.50157 24.6291C10.4395 24.581 10.8003 23.787 10.7522 23.2577C10.6079 20.996 6.90409 21.1403 6.66359 17.411C6.47118 14.2831 8.51549 11.1312 13.037 10.8424C14.7927 10.7221 15.6826 11.1793 15.6826 11.1793Z" fill="white"/>
</svg>
