<svg width="24" height="24" viewBox="0 0 24 24" fill="none" xmlns="http://www.w3.org/2000/svg">
<path d="M18.3375 18.3375H15.6705V14.16C15.6705 13.164 15.6525 11.8815 14.283 11.8815C12.894 11.8815 12.681 12.9675 12.681 14.0865V18.3375H10.014V9.74702H12.5745V10.9215H12.6105C13.1325 10.0305 14.1045 9.49652 15.1365 9.53402C17.8395 9.53402 18.339 11.3115 18.339 13.626L18.3375 18.336V18.3375ZM7.005 8.57252C6.59531 8.57055 6.20294 8.40703 5.9131 8.11748C5.62327 7.82792 5.45937 7.43571 5.457 7.02602C5.457 6.17702 6.156 5.47802 7.005 5.47802C7.854 5.47802 8.5515 6.17702 8.553 7.02602C8.553 7.87502 7.854 8.57252 7.005 8.57252ZM8.3385 18.3375H5.6685V9.74702H8.3385V18.3375ZM19.665 3.00002H4.3275C3.97973 2.998 3.64521 3.13331 3.39663 3.37655C3.14806 3.61978 3.00553 3.95129 3 4.29902V19.701C3.00553 20.0488 3.14806 20.3803 3.39663 20.6235C3.64521 20.8667 3.97973 21.002 4.3275 21H19.6665C20.0151 21.0028 20.3507 20.868 20.6004 20.6247C20.8501 20.3815 20.9937 20.0496 21 19.701V4.29752C20.9937 3.94926 20.85 3.61762 20.6002 3.37486C20.3504 3.1321 20.0148 2.9979 19.6665 3.00152L19.665 3.00002Z" fill="black"/>
</svg>
